<svg xmlns="http://www.w3.org/2000/svg" height="114" width="100"><path fill="#1B2F5A" d="M57.2 40.6L28.5 56.9 0 40.4l28.6-16.6z"/><path fill="#234871" d="M28.5 56.9v33.5L0 73.8V40.4z"/><path fill="#69FFBD" d="M38.8 62.8v21.9l-10.3 5.7V56.9l28.7-16.3V52z"/><g><path fill="#1B2F5A" d="M70.5 65.9L70.4 33l28.5-16.5.4 32.9z"/><path fill="#234871" d="M70.4 33L41.1 16.5 69.7 0l29.2 16.5z"/><path fill="#69FFBD" d="M60.2 39L41.1 28.2V16.5l29.3 16.6.1 32.8-10-5.6z"/></g><g><path fill="#1B2F5A" d="M42.3 64.2l28.3 17-.5 32.8-28.5-16.6z"/><path fill="#234871" d="M70.6 81.2L100 64.8l-.6 32.9L70.1 114z"/><path fill="#69FFBD" d="M70.8 69.4L90 58.7l10 6.1-29.4 16.4-28.3-17 10-5.6z"/></g></svg>
